<svg xmlns="http://www.w3.org/2000/svg" version="1.1" xmlns:xlink="http://www.w3.org/1999/xlink" xmlns:svgjs="http://svgjs.dev/svgjs" viewBox="0 0 800 800"><defs><linearGradient x1="50%" y1="0%" x2="50%" y2="100%" id="uundulate-grad"><stop stop-color="hsl(37, 99%, 67%)" stop-opacity="1" offset="45%"></stop><stop stop-color="hsl(316, 73%, 52%)" stop-opacity="1" offset="100%"></stop></linearGradient></defs><g stroke-width="1" stroke="#d8ff2c" fill="none"><path d="M624.5994749342769 449.13692024843385C610.4992653622284 531.6327451709863 607.3041178290403 556.8356995486024 567.9565258245636 594.1766296841796C528.6089338200868 631.5175598197568 515.6059514905503 621.6866575733665 435.73103331278946 628.3733848992035C355.85611513502863 635.0601122250406 240.6901808422807 683.4898042223626 184.55691857131183 626.2729208481983C128.42365630034283 569.0560374740339 128.81882845413207 449.68439633526805 166.29137441213902 353.73234470321484C203.76392037014602 257.7802930711617 266.6446897201085 198.1063385658607 364.4251391697453 165.70307301434264C462.20558861938207 133.29980746282462 581.4345451527845 139.1479518821593 635.6375317703953 198.19667005592828C689.8405183880062 257.2453882296972 638.6996845063252 366.64109532588134 624.5994749342769 449.13692024843385C610.4992653622284 531.6327451709863 607.3041178290403 556.8356995486024 567.9565258245636 594.1766296841796 "></path><path d="M615.961079367018 447.24706980487167C602.4031855477407 526.5699783842491 599.3309283042904 550.8035883627263 561.4967052230629 586.7083288777043C523.6624821418354 622.6130693926823 511.15961451728094 613.1602787711531 434.35680857712623 619.5898242767657C357.55400263697163 626.0193697823782 246.81752735548332 672.5863813182649 192.84323671032087 617.5701473046454C138.8689460651584 562.5539132910257 139.24891928995572 447.77348911913543 175.28021348034702 355.51190101139196C211.31150767073837 263.25031290364853 271.7737858918561 205.87151049470532 365.79344882419923 174.7145243874764C459.8131117565422 143.5575382802475 574.4563391925062 149.18075406806935 626.5745955555935 205.95836769669336C678.6928519186808 262.7359813253173 629.5189731862953 367.92416122549434 615.961079367018 447.24706980487167C602.4031855477407 526.5699783842491 599.3309283042904 550.8035883627263 561.4967052230629 586.7083288777043 "></path><path d="M607.3226075058138 445.35717358494253C594.3070294393076 521.5071658211448 591.3576624855954 544.7714314004829 555.036808327617 579.2399822948616C518.7159541696385 613.7085331892407 506.7132012500663 604.6338541925727 432.9825075475178 610.8062178779608C359.2518138449693 616.9785815633488 252.9447975747405 661.6829126378 201.1294785553846 608.8673279847251C149.31415953602863 556.0517433316503 149.67893383183406 445.86253612663563 184.2689762546097 357.291411543202C218.8590186773854 268.72028695976826 276.90280576965847 213.63663664718274 367.16168218470784 183.72592998424295C457.4205585997571 153.81522332130322 567.4780569382825 159.2135104776122 617.5115830468462 213.72001956109125C667.54510915541 268.2265286445703 620.3381855723201 369.2071813487403 607.3226075058138 445.35717358494253C594.3070294393076 521.5071658211448 591.3576624855954 544.7714314004829 555.036808327617 579.2399822948616 "></path><path d="M598.6841509033989 443.4673078825913C586.2108885896636 516.4443837756186 583.3844119256894 538.7393049558175 548.5769266909601 571.7716662295973C513.7694414562307 604.804027503377 502.2668032416407 596.1074601315703 431.60822177669843 602.0226419967339C360.9496403117562 607.9378238618974 259.0720830527868 650.7794744749131 209.41573565923738 600.164539182383C159.7593882656879 549.549603889853 160.10896363250146 443.95161365171396 193.25775428766144 359.07095259258995C226.40654494282148 274.19029153346605 282.03184090624984 221.40179331723823 368.5299308040054 192.73736609858764C455.0280207017611 164.0729388799371 560.4997899428479 169.24629740473318 608.4485857968882 221.48170194306726C656.3973816509285 273.7171064814013 611.1574132171338 370.4902319895642 598.6841509033989 443.4673078825913C586.2108885896636 516.4443837756186 583.3844119256894 538.7393049558175 548.5769266909601 571.7716662295973 "></path><path d="M590.0457248185618 441.57741166266214C578.1147782575977 511.38157121251425 575.4111918833617 532.707147993574 542.1170755718813 564.3033196467547C508.82295926040115 595.8994912999353 497.8204357507932 587.5810355529898 430.23396652345707 593.2390355979289C362.64749729612095 598.8970356428679 265.19939904841124 639.876005794448 217.7020232806683 591.4617198624628C170.2046475129253 543.0474339304776 170.53902395074698 442.04066065921415 202.2465628382913 360.8504631244C233.9541017258357 279.6602655895857 287.16090656041933 229.16691946971565 369.8982099408812 201.74877169535426C452.63551332134307 174.33062392099282 553.5215534649913 179.27905381427604 599.3856190645082 229.24335380746516C645.249684664025 279.20765380065427 601.9766713795258 371.77325211281004 590.0457248185618 441.57741166266214C578.1147782575977 511.38157121251425 575.4111918833617 532.707147993574 542.1170755718813 564.3033196467547 "></path><path d="M581.4072987337248 439.687545960311C570.0186679255319 506.3187891669879 567.4379718410337 526.6750215489088 535.6572244528026 556.8350035814904C503.8764770645714 586.9949856140719 493.3740682599457 579.0546414919875 428.8597112702157 584.455459716702C364.34535428048594 589.8562779414165 271.32671504403567 628.9725676315613 225.98831090209922 582.7589310601207C180.6499067601627 536.5452944886804 180.9690842689925 440.1297381842925 211.23537138892118 362.63000417378805C241.5016585088499 285.1302701632835 292.28997221458883 236.9320761397712 371.266489077757 210.76020780969895C450.2430059409252 184.58833947962665 546.5433169871349 189.31184074139702 590.3226523321282 237.00503618944117C634.1019876771215 284.6982316374853 592.7959295419178 373.056302753634 581.4072987337248 439.687545960311C570.0186679255319 506.3187891669879 567.4379718410337 526.6750215489088 535.6572244528026 556.8350035814904 "></path><path d="M572.7688573900987 437.7976344815927C561.9225423346769 501.25596134509465 559.4647365399168 520.6428493278763 529.1973580749348 549.3666417398588C498.9299796099526 578.0904341518412 488.9276855103092 570.5282016546179 427.4854407581854 575.6718380591079C366.0431960060617 580.815474463598 277.45401578087103 618.0690836923072 234.27458326474107 574.0560964814115C191.0951507486111 530.0431092705159 191.39912932844896 438.2187699330036 220.224164680762 364.4094994468089C249.04920003307507 290.6002289606142 297.41902260996926 244.69718703345956 372.63475295584374 219.77159814767646C447.8504833017182 194.8460092618933 539.5650652504893 199.3445818921508 581.2596703409592 244.76667279505C622.954275431429 290.1887636979492 583.6151724455206 374.33930761809086 572.7688573900987 437.7976344815927C561.9225423346769 501.25596134509465 559.4647365399168 520.6428493278763 529.1973580749348 549.3666417398588 "></path><path d="M564.1304313052618 435.9077535204525C553.826432002611 496.19316404077927 551.4915164975889 514.6107076244219 522.7375069558559 541.8983104158052C493.983497414123 569.1859132071885 484.4813180194617 562.0017923348264 426.11118550494416 566.8882469190919C367.74105299042657 571.7747015033574 283.5813317764954 607.1656302706313 242.56087088617198 565.3532924202805C201.5404099958485 523.5409545699295 201.8291896466945 436.3078321992929 229.21297323139186 366.1890252374079C256.5967568160893 296.0702182755229 302.54808826413876 252.46232844472604 374.00303209271954 228.78301900323208C445.4579759213002 205.10370956173813 532.5868287726328 209.37735356048273 572.1967036085791 252.52833991823695C611.8065784445255 295.6793262759912 574.4344306079125 375.62234300012574 564.1304313052618 435.9077535204525C553.826432002611 496.19316404077927 551.4915164975889 514.6107076244219 522.7375069558559 541.8983104158052 "></path><path d="M555.4919899616358 434.01788781810137C545.7303064117561 491.13038199525306 543.5182811964719 508.5785811797566 516.2776405779881 534.4299943505408C489.0369999595043 560.281407521325 480.03493526982516 553.4753982738241 424.73691499291374 558.104671037865C369.43889471600244 562.7339438019061 289.70863251333077 596.2621921077445 250.84714324881384 556.6505036179383C211.98565398429685 517.0388151281322 212.25923470615095 434.3969097243712 238.20176652323266 367.968566286796C264.14429834031444 301.5402228492207 307.6771386595192 260.2274851147816 375.3712959708062 237.79445511757677C443.06545328209324 215.36142512037196 525.6085770359873 219.41014048760366 563.1337216174102 260.29002230021297C600.658866198833 301.1699041128222 565.2536735115154 376.9053936409497 555.4919899616358 434.01788781810137C545.7303064117561 491.13038199525306 543.5182811964719 508.5785811797566 516.2776405779881 534.4299943505408 "></path><path d="M546.8535333592206 432.12799159817223C537.6341655621121 486.06756943214873 535.545030636566 502.5464242175133 509.81775894133125 526.9616477676983C484.0904872460965 551.3768713178833 475.58853726139944 544.9489736952435 423.36262922209437 549.3210646390601C371.1367211827892 553.6931555828767 295.8359179913771 585.3587234272795 259.1334003526666 547.9476842980182C222.43088271395612 510.5366451687569 222.68926450681835 432.4859567318715 247.1905445562844 369.7480768186059C271.6918246057505 307.0101969053404 312.8061737961106 267.992611267259 376.73954459010383 246.80586071434334C440.6729153840972 225.61911016142767 518.6303100405526 229.4428968971465 554.0707243674519 268.05167416461086C589.5111386943513 306.66045143207515 556.0729011563292 378.18841376419556 546.8535333592206 432.12799159817223C537.6341655621121 486.06756943214873 535.545030636566 502.5464242175133 509.81775894133125 526.9616477676983 "></path><path d="M538.2150920155946 430.2381258958211C529.5380399712571 481.0047873866225 527.571795335449 496.51429777284795 503.35789256346334 519.4933317024338C479.1439897914778 542.4723656320198 471.1421545117629 536.4225796342412 421.98835871006395 540.5374887578332C372.834562908365 544.6523978814253 301.96321872821244 574.4552852643926 267.4196727153085 539.2448954956761C232.87612670240452 504.03450572695965 233.1193095662748 430.57503425694983 256.1793378481252 371.52761786799397C279.2393661299757 312.4802014790382 317.93522419149105 275.7577679373145 378.10780846819057 255.81729682868803C438.28039274489015 235.87682572006156 511.6520583039071 239.4756838242675 545.007742376283 275.8133565465869C578.3634264486589 312.1510292689062 546.8921440599322 379.47146440501956 538.2150920155946 430.2381258958211C529.5380399712571 481.0047873866225 527.571795335449 496.51429777284795 503.35789256346334 519.4933317024338 "></path><path d="M529.5766201543905 428.3482144171028C521.441883862824 475.94195956472913 519.598529516754 490.48212555181544 496.8979956680174 512.0249698608022C474.1974618192809 533.5678141697891 466.69574124454823 527.8961397968716 420.6140576804554 531.7538671002392C374.5323741163627 535.6115944036067 308.0904889474697 563.5518013251386 275.7059145603722 530.5420609169669C243.32134017327473 497.5323205087951 243.54932410815314 428.66406600566097 265.1681006223879 373.3071131410149C286.7868771366227 317.9501602763688 323.06424406929335 283.52287883100286 379.4760418286992 264.82868716666553C435.88783958810495 246.1344955023282 504.6737760496834 249.50842497502128 535.9447298675358 283.5749931521957C567.2156836853882 317.6415613293701 537.7113564459569 380.7544692694763 529.5766201543905 428.3482144171028C521.441883862824 475.94195956472913 519.598529516754 490.48212555181544 496.8979956680174 512.0249698608022 "></path><path d="M520.9381940695534 426.45836397354066C513.3457735307582 470.879192777992 511.6253094744261 484.4500143659392 490.4381445489387 504.5566690543269C469.25097962345126 524.6633237427145 462.24937375370075 519.3697609946582 419.23980242721416 522.9703064778013C376.23023110072756 526.5708519609443 314.2178049430941 552.6483784210409 283.9922021818031 521.8392873734139C253.76659942051214 491.03019632578685 253.97938442639867 426.75315878952836 274.15690917301777 375.086669449192C294.3344339196369 323.4201801088557 328.19330972346285 291.28805075984747 380.844320965575 273.8401385397993C433.49533220768706 256.3922263197511 497.6955395718269 259.5412271609313 526.8817631351558 291.3366907929608C556.0679866984847 323.1321544249902 528.5306146083487 382.0375351690893 520.9381940695534 426.45836397354066C513.3457735307582 470.879192777992 511.6253094744261 484.4500143659392 490.4381445489387 504.5566690543269 "></path><path d="M512.2997374671385 424.56846775361146C505.24963268111424 465.81638021488766 503.6520589145201 478.41785740369573 483.9782629122818 497.0883224714844C464.3044669100434 515.7587875392729 457.80297574527515 510.8433364160778 417.86551665639473 514.1867000789963C377.9280575675143 517.5300637419148 320.34509042114036 541.7449097405758 292.2784592856559 513.1364680534937C264.2118281501714 484.5280263664115 264.40941422706607 424.84220579702856 283.1456872060695 376.86617998100195C301.881960185073 328.89015416497534 333.3223448600543 299.0531769123249 382.21256958487265 282.85154413656585C431.10279430969103 266.6499113608068 490.71727257639225 269.5739835704742 517.8187658851976 299.09834265735867C544.9202591940032 328.62270174424316 519.3498422531626 383.3205552923352 512.2997374671385 424.56846775361146C505.24963268111424 465.81638021488766 503.6520589145201 478.41785740369573 483.9782629122818 497.0883224714844 "></path><path d="M503.66129612351233 422.6786020512603C497.15350709025927 460.75359816936145 495.6788236134032 472.3857309590305 477.518396534414 489.6200064062199C459.3579694554247 506.8542818534095 453.3565929956386 502.3169423550754 416.49124614436437 505.40312419776944C379.62589929309013 508.4893060404635 326.4723911579757 530.841471577689 300.56473164829777 504.4336792511516C274.65707213861975 478.02588692461427 274.83945928652247 422.9312833221069 292.1344804979103 378.64572103039006C309.42950170929817 334.3601587386732 338.4513952554347 306.81833358238043 383.5808334629594 291.86298025091054C428.710271670484 276.9076269194407 483.7390208397467 279.60677049759516 508.7557838940286 306.8600250393347C533.7725469483105 334.1132795810742 510.1690851567655 384.6036059331592 503.66129612351233 422.6786020512603C497.15350709025927 460.75359816936145 495.6788236134032 472.3857309590305 477.518396534414 489.6200064062199 "></path><path d="M495.0228547798863 420.7887058313311C489.0573814994043 455.6907856062571 487.7055883122863 466.35357399678696 471.0585301565461 482.1516598233774C454.41147200080604 497.94974564996767 448.91021024600207 493.7905177764949 415.116975632334 496.61951779896447C381.32374101866594 499.44851782143394 332.5996918948111 519.938002897224 308.8510040109396 495.7308599312314C285.10231612706815 471.5237169652388 285.26950434597893 421.0203303296071 301.1232737897511 380.4252315622C316.9770432335233 339.83013279479286 343.58044565081514 314.58345973485785 384.94909734104607 300.8743858476771C426.317749031277 287.1653119604964 476.7607691031011 289.639526907138 499.6928019028596 314.6216769037326C522.624834702618 339.60382690032714 500.9883280603683 385.886626056405 495.0228547798863 420.7887058313311C489.0573814994043 455.6907856062571 487.7055883122863 466.35357399678696 471.0585301565461 482.1516598233774 "></path><path d="M486.3844134362603 418.89884012897994C480.96125590854945 450.6280035607309 479.7323530111694 460.32144755212175 464.5986637786783 474.683343758113C449.46497454618725 489.0452399641042 444.4638274963655 485.2641237154926 413.74270512030364 487.8359419177375C383.02158274424175 490.40776011998264 338.72699263164645 509.0345647343372 317.13727637358147 487.02807112888934C295.5475601155165 465.0215775234415 295.6995494054354 419.1094078546854 310.11206708159193 382.20477261158806C324.52458475774847 345.30013736849065 348.70949604619557 322.3486164049134 386.3173612191328 309.8858219620218C423.92522639207004 297.42302751913024 469.7825173664556 299.672313834259 490.62981991169056 322.3833592857086C511.4771224569254 345.0944047371582 491.8075709639712 387.169676697229 486.3844134362603 418.89884012897994C480.96125590854945 450.6280035607309 479.7323530111694 460.32144755212175 464.5986637786783 474.683343758113 "></path><path d="M477.7459720926343 417.0089439090507C472.8651303176945 445.56519099762653 471.75911771005235 454.2892905898783 458.13879740081046 467.2149971752704C444.51847709156857 480.1407037606625 440.017444746729 476.73769913691206 412.3684346082733 479.0523355189325C384.7194244698176 481.36697190095305 344.8542933684818 498.13109605387217 325.4235487362233 478.32525180896914C305.99280410396483 458.5194075640661 306.12959446489185 417.1984548621856 319.10086037343274 383.984283143398C332.0721262819736 350.7701114246104 353.838546441576 330.11374255739076 387.6856250972195 318.89722755878836C421.53270375286303 307.68071256018595 462.80426562981006 309.70507024380186 481.5668379205215 330.1450111501065C500.3294102112329 350.5849520564111 482.6268138675741 388.45269682047484 477.7459720926343 417.0089439090507C472.8651303176945 445.56519099762653 471.75911771005235 454.2892905898783 458.13879740081046 467.2149971752704 "></path><path d="M469.1075460077973 415.11906294791055C464.7690199856286 440.50239369331126 463.7858976677245 448.257148886424 451.67894628173167 459.7466658512169C439.5719948957389 471.2361828160099 435.57107725588145 468.2112898171206 410.994179355032 470.2687443789166C386.4172814541825 472.32619894071263 350.9816093641062 487.2276426321963 333.70983635765424 469.62244774783807C316.43806335120223 452.0172528634798 316.5596547831374 415.2875171284749 328.0896689240626 385.763808933997C339.61968306498784 356.2401007395191 358.9676120957455 337.87888396865725 389.0539042340953 327.908648414344C419.1401963724451 317.9384128600308 455.82602915195355 319.7378419121338 472.5038711881415 337.90667827329344C489.1817132243294 356.0755146344531 473.4460720299661 389.7357322025098 469.1075460077973 415.11906294791055C464.7690199856286 440.50239369331126 463.7858976677245 448.257148886424 451.67894628173167 459.7466658512169 "></path><path d="M460.4690894053822 413.2291819867703C456.67287913598454 435.439596388996 455.8126471078185 442.2250071829696 445.2190646450748 452.27833452716345C434.6254821823311 462.33166187135726 431.12467924745584 459.6848804973291 409.61989358421255 461.48515323890064C388.11510792096925 463.28542598047216 357.1088948421525 476.32418921052044 341.99609346150703 460.91964368670693C326.8832920808615 445.5150981628934 326.9896845838048 413.3765793947642 337.07844695711435 387.543334724596C347.16720933042393 361.71009005442784 364.0966472323369 345.64402537992373 390.42215285339296 336.92006926989967C416.747658474449 328.19611315987555 448.8477621565189 329.7706135804657 463.44087393818336 345.6683453964804C478.0339857198478 361.5660772124951 464.26529967477984 391.01876758454466 460.4690894053822 413.2291819867703C456.67287913598454 435.439596388996 455.8126471078185 442.2250071829696 445.2190646450748 452.27833452716345 "></path><path d="M451.83064806175616 411.33930102563016C448.57675354512963 430.3767990846807 447.8394118067016 436.19286547951526 438.759198267207 444.81000320310994C429.67898472771236 453.42714092670474 426.6782964978193 451.1584711775377 408.2456230721822 452.7015620988847C389.81294964654506 454.24465302023174 363.23619557898786 465.4207357888445 350.2823658241489 452.2168396255758C337.3285360693099 439.01294346230713 337.41972964326123 411.46564166105344 346.06724024895516 389.32286051519503C354.7147508546491 367.18007936933657 369.22569762771735 353.4091667911902 391.7904167314797 345.9314901254553C414.355135835242 338.4538134597203 441.86951041987334 339.80338524879755 454.3778919470143 353.43001251966734C466.88627347415525 367.0566397905371 455.08454257838275 392.3018029665796 451.83064806175616 411.33930102563016C448.57675354512963 430.3767990846807 447.8394118067016 436.19286547951526 438.759198267207 444.81000320310994 "></path><path d="M443.19220671813014 409.44942006448997C440.4806279542747 425.31400178036546 439.8661765055847 430.1607237760609 432.29933188933916 437.3416718790565C424.7324872730936 444.5226199820521 422.23191374818276 442.6320618577463 406.8713525601518 443.91797095886875C391.5107913721209 445.2038800599913 369.3634963158232 454.5172823671686 358.56863818679074 443.51403556444467C347.77378005775824 432.51078876172073 347.8497747027177 409.5547039273427 355.05603354079597 391.102386305794C362.26229237887424 372.65006868424535 374.3547480230978 361.1743082024567 393.1586806095664 354.9429109810109C411.962613196035 348.71151375956515 434.89125868322776 349.8361569171295 445.3149099558453 361.1916796428543C455.7385612284627 372.54720236857906 445.9037854819856 393.5848383486145 443.19220671813014 409.44942006448997C440.4806279542747 425.31400178036546 439.8661765055847 430.1607237760609 432.29933188933916 437.3416718790565 "></path><path d="M434.5537653745041 407.5595391033498C432.38450236341976 420.2512044760502 431.8929412044677 424.1285820726065 425.8394655114713 429.873340555003C419.7859898184749 435.6180990373995 417.7855309985462 434.1056525379548 405.49708204812146 435.13437981885284C393.2086330976967 436.16310709975085 375.4907970526586 443.6138289454927 366.8549105494326 434.8112315033136C358.2190240462066 426.00863406113444 358.27981976217416 407.64376619363196 364.0448268326368 392.881912096393C369.8098339030994 378.1200579991541 379.4837984184782 368.9394496137232 394.5269444876531 363.95433183656655C409.570090556828 358.9692140594099 427.91300694658224 359.8689285854614 436.2519279646762 368.95334676604125C444.5908489827702 378.0377649466211 436.7230283855885 394.8678737306494 434.5537653745041 407.5595391033498C432.38450236341976 420.2512044760502 431.8929412044677 424.1285820726065 425.8394655114713 429.873340555003 "></path><path d="M425.9153240308781 405.6696428834206C424.2883767725648 415.1883919129458 423.9197059033508 418.0964251103631 419.3795991336035 422.40499397216047C414.83949236385615 426.71356283395784 413.3391482489096 425.5792279593743 404.1228115360911 426.3507734200478C394.90647482327256 427.1223188807213 381.61809778949396 432.7103602650277 375.14118291207444 426.1084121833934C368.6642680346549 419.50646410175904 368.7098648216306 405.7328132011322 373.0336201244776 394.66142262820296C377.35737542732454 383.59003205527375 384.61284881385865 376.70457576620055 395.89520836573985 372.9657374333331C407.177567917621 369.22689910046563 420.93475520993667 369.90168499500425 427.18894597350715 376.71499863043914C433.4431367370776 383.52831226587404 427.5422712891914 396.15089385389524 425.9153240308781 405.6696428834206C424.2883767725648 415.1883919129458 423.9197059033508 418.0964251103631 419.3795991336035 422.40499397216047 "></path><path d="M417.27688268725205 403.7797619222804C416.1922511817099 410.12559460863054 415.9464706022339 412.0642834069087 412.91973275573565 414.93666264810696C409.8929949092375 417.8090418893052 408.8927654992731 417.0528186395829 402.7485410240607 417.5671822800319C396.6043165488484 418.0815459204809 387.74539852632927 421.80690684335184 383.4274552747163 417.40560812226227C379.1095120231033 413.0043094011727 379.1399098810871 403.8218754674215 382.0224134163184 396.440948418802C384.9049169515497 389.0600213701825 389.74189920923914 384.46971717746703 397.2634722438266 381.97715828888875C404.78504527841403 379.4845994003104 413.95650347329115 379.93445666333616 418.12596398233813 384.4766657536261C422.2954244913851 389.018874843916 418.36151419279423 397.4339292359302 417.27688268725205 403.7797619222804C416.1922511817099 410.12559460863054 415.9464706022339 412.0642834069087 412.91973275573565 414.93666264810696 "></path><path d="M408.638441343626 401.8898809611402C408.09612559085497 405.06279730431527 407.9732353011169 406.0321417034544 406.45986637786785 407.4683313240535C404.94649745461874 408.90452094465263 404.44638274963654 408.52640931979147 401.37427051203036 408.7835911400159C398.3021582744242 409.0407729602405 393.87269926316463 410.9034534216759 391.71372763735815 408.70280406113113C389.55475601155166 406.50215470058635 389.56995494054354 401.91093773371074 391.0112067081592 398.220474209401C392.45245847577485 394.53001068509127 394.87094960461957 392.2348585887335 398.63173612191326 390.9885791444444C402.392522639207 389.74229970015523 406.9782517366456 389.9672283316681 409.06298199116907 392.23833287681305C411.14771224569256 394.509437421958 409.18075709639714 398.71696461796506 408.638441343626 401.8898809611402C408.09612559085497 405.06279730431527 407.9732353011169 406.0321417034544 406.45986637786785 407.4683313240535 "></path></g></svg>